<?xml version="1.0" encoding="iso-8859-1"?>
<!-- Generator: Adobe Illustrator 19.0.0, SVG Export Plug-In . SVG Version: 6.00 Build 0)  -->
<svg version="1.1" id="Layer_1" xmlns="http://www.w3.org/2000/svg" xmlns:xlink="http://www.w3.org/1999/xlink" x="0px" y="0px"
	 viewBox="0 0 500 500" style="enable-background:new 0 0 500 500;" xml:space="preserve">
<path style="fill:#EDC654;" d="M4,51.6v304c0,7.6,6.4,14.8,14,14.8h468c7.6,0,14-7.2,14-14.8v-302c0-8.8-7.2-15.2-16-15.2H18
	C10.4,38.4,4,44,4,51.6z"/>
<rect x="28" y="62.4" style="fill:#CDEEF9;" width="448" height="280"/>
<path style="fill:#3C8E51;" d="M200,132.8l-73.2,73.6L92,172.8l-62.4,58.8c-0.4,0.4,0,111.2,0,111.2H476V248l-75.6-79.6l-81.2,80.8
	L200,132.8z"/>
<path style="fill:#54B265;" d="M204,129.2l-77.2,77.6l138.4,135.6h157.6L204,129.2z"/>
<path style="fill:#E8BB85;" d="M92,172.8l-62.4,58.8c-0.4,0.4,0,111.2,0,111.2h237.6L92,172.8z"/>
<circle style="fill:#E9B526;" cx="316.4" cy="129.2" r="26.4"/>
<path style="fill:#DF5C4E;" d="M313.6,254.4c-24.4,0-45.6,13.2-57.2,32.4c-11.6-19.6-32.8-32.4-57.2-32.4c-36.8,0-66.8,30-66.8,66.8
	c0,82.8,124,144,124,144s124-61.6,124-144C380.4,284.4,350.4,254.4,313.6,254.4z"/>
<path d="M256.4,469.6c-0.8,0-1.2,0-1.6-0.4c-5.2-2.4-126.4-63.6-126.4-147.6c0-39.2,31.6-70.8,70.8-70.8c22.8,0,44,10.8,57.2,29.2
	c13.2-18.4,34.4-29.2,57.2-29.2c39.2,0,70.8,31.6,70.8,70.8c0,84-121.2,145.2-126.4,147.6C257.6,469.2,256.8,469.6,256.4,469.6z
	 M199.2,258.4c-34.8,0-62.8,28-62.8,62.8c0,74,104.8,131.6,120,139.6c15.2-8,120-65.6,120-139.6c0-34.8-28-62.8-62.8-62.8
	c-22,0-42.4,11.6-53.6,30.4c-0.8,1.2-2,2-3.6,2l0,0c-1.6,0-2.8-0.8-3.6-2C241.6,270,221.2,258.4,199.2,258.4z"/>
<path d="M482,374.4H366c-2.4,0-4-1.6-4-4s1.6-4,4-4h116c6.4,0,10-3.6,10-10v-306c0-6.8-5.2-12-12-12H18c-6.8,0-10,3.2-10,10v308
	c0,6.4,3.6,10,10,10h128c2.4,0,4,1.6,4,4s-1.6,4-4,4H18c-10.8,0-18-7.2-18-18v-308c0-10.8,7.2-18,18-18h462c11.2,0,20,8.8,20,20v306
	C500,367.2,492.8,374.4,482,374.4z"/>
<path d="M132,346.4H28c-2.4,0-4-1.6-4-4v-280c0-2.4,1.6-4,4-4h388c2.4,0,4,1.6,4,4s-1.6,4-4,4H32v272h100c2.4,0,4,1.6,4,4
	S134.4,346.4,132,346.4z"/>
<path d="M472,346.4h-92c-2.4,0-4-1.6-4-4s1.6-4,4-4h88v-272h-16c-2.4,0-4-1.6-4-4s1.6-4,4-4h20c2.4,0,4,1.6,4,4v280
	C476,344.4,474.4,346.4,472,346.4z"/>
<path d="M28,234.4c-1.2,0-2-0.4-2.8-1.2c-1.6-1.6-1.6-4,0-5.6l64-64.4c1.6-1.6,4-1.6,5.6,0s1.6,4,0,5.6l-64,64.4
	C30,234,29.2,234.4,28,234.4z"/>
<path d="M180.4,258.4c-1.2,0-2-0.4-2.8-1.2l-88.4-88.4c-1.6-1.6-1.6-4,0-5.6s4-1.6,5.6,0l88.4,88.4c1.6,1.6,1.6,4,0,5.6
	C182.4,258,181.2,258.4,180.4,258.4z"/>
<path d="M140,194.4c-1.2,0-2-0.4-2.8-1.2c-1.6-1.6-1.6-4,0-5.6l64-64c1.6-1.6,4-1.6,5.6,0s1.6,4,0,5.6l-64,64
	C142,194.4,141.2,194.4,140,194.4z"/>
<path d="M336,234.4c-1.2,0-2-0.4-2.8-1.2c-1.6-1.6-1.6-4,0-5.6l64.4-64.4c1.6-1.6,4-1.6,5.6,0s1.6,4,0,5.6l-64.4,64.4
	C338,234,337.2,234.4,336,234.4z"/>
<path d="M332.8,259.2c-1.2,0-2-0.4-2.8-1.2L201.2,129.2c-1.6-1.6-1.6-4,0-5.6s4-1.6,5.6,0l128.8,128.8c1.6,1.6,1.6,4,0,5.6
	C334.8,258.8,333.6,259.2,332.8,259.2z"/>
<path d="M470.8,244c-1.2,0-2-0.4-2.8-1.2l-70-74c-1.6-1.6-1.6-4,0-5.6s4-1.6,5.6,0l70,74c1.6,1.6,1.6,4,0,5.6
	C472.8,243.6,471.6,244,470.8,244z"/>
<path d="M316,154.8c-15.6,0-28-12.8-28-28c0-15.6,12.8-28,28-28c6,0,11.6,1.6,16.4,5.2c2,1.2,2.4,3.6,0.8,5.6
	c-1.2,2-3.6,2.4-5.6,0.8c-3.6-2.4-7.6-3.6-11.6-3.6c-11.2,0-20,9.2-20,20c0,11.2,9.2,20,20,20s20-9.2,20-20c0-2.4,1.6-4,4-4
	s4,1.6,4,4C344.4,142,331.6,154.8,316,154.8z"/>
<g>
</g>
<g>
</g>
<g>
</g>
<g>
</g>
<g>
</g>
<g>
</g>
<g>
</g>
<g>
</g>
<g>
</g>
<g>
</g>
<g>
</g>
<g>
</g>
<g>
</g>
<g>
</g>
<g>
</g>
</svg>
